<?xml version="1.0" encoding="UTF-8" ?>
<!DOCTYPE svg PUBLIC "-//W3C//DTD SVG 1.1//EN" "http://www.w3.org/Graphics/SVG/1.1/DTD/svg11.dtd">
<svg width="501pt" height="222pt" viewBox="0 0 501 222" version="1.1" xmlns="http://www.w3.org/2000/svg">
<g id="#000000ff">
<path fill="#000000" opacity="1.00" d=" M 109.02 32.00 C 112.36 32.00 115.70 31.99 119.04 32.00 C 118.64 34.49 118.19 36.97 117.73 39.44 C 120.06 39.53 122.40 39.58 124.74 39.51 C 125.12 37.00 125.60 34.50 126.06 31.99 C 129.39 32.00 132.73 32.00 136.06 32.00 C 135.65 34.52 135.23 37.03 134.78 39.54 C 136.52 39.54 138.26 39.54 139.99 39.53 C 140.00 43.69 140.00 47.84 140.00 52.00 C 137.55 52.00 135.11 52.00 132.67 52.00 C 132.37 53.66 132.08 55.33 131.79 56.99 C 133.85 57.00 135.93 57.00 138.00 57.01 C 138.00 61.16 138.00 65.31 138.00 69.47 C 135.22 69.45 132.44 69.48 129.66 69.49 C 129.23 71.99 128.81 74.49 128.36 76.98 C 125.03 77.01 121.69 77.01 118.35 76.97 C 118.75 74.48 119.15 71.98 119.61 69.50 C 117.28 69.47 114.95 69.46 112.63 69.46 C 112.18 71.93 111.79 74.42 111.42 76.92 C 108.04 77.06 104.67 77.01 101.29 76.96 C 101.70 74.47 102.15 71.99 102.62 69.51 C 100.92 69.50 99.22 69.47 97.52 69.46 C 97.54 65.31 97.53 61.16 97.54 57.01 C 99.93 57.02 102.32 56.99 104.71 56.95 C 105.00 55.30 105.31 53.65 105.61 52.00 C 103.59 52.00 101.56 52.00 99.54 52.00 C 99.53 47.84 99.54 43.68 99.52 39.52 C 102.24 39.53 104.96 39.53 107.68 39.54 C 108.10 37.03 108.58 34.52 109.02 32.00 M 115.24 51.31 C 114.88 53.38 114.54 55.46 114.22 57.53 C 116.86 57.54 119.51 57.53 122.15 57.53 C 122.48 55.45 122.78 53.36 123.07 51.27 C 120.46 51.24 117.85 51.27 115.24 51.31 Z" />
<path fill="#000000" opacity="1.00" d=" M 106.45 83.69 C 116.49 80.34 128.35 81.80 136.96 88.11 C 134.48 91.50 132.07 94.93 129.65 98.36 C 125.18 95.29 119.66 93.50 114.21 94.09 C 112.11 93.99 111.45 96.81 113.47 97.52 C 120.59 99.84 128.99 99.84 134.73 105.29 C 140.84 111.37 137.96 122.87 130.34 126.34 C 121.01 130.68 109.75 129.47 100.56 125.34 C 98.69 124.13 95.78 123.28 95.03 121.11 C 97.25 117.82 100.06 114.99 102.47 111.84 C 107.98 115.63 114.95 118.05 121.63 116.64 C 123.68 115.91 122.64 113.30 120.79 113.16 C 113.48 110.98 104.73 110.75 99.35 104.59 C 94.00 97.49 98.24 86.41 106.45 83.69 Z" />
<path fill="#000000" opacity="1.00" d=" M 140.26 83.01 C 153.00 82.99 165.73 83.00 178.46 83.01 C 178.47 87.09 178.47 91.18 178.46 95.26 C 170.64 95.27 162.83 95.27 155.01 95.26 C 155.01 96.84 155.00 98.42 154.99 100.00 C 162.33 100.01 169.66 99.99 177.00 100.00 C 177.00 103.58 177.01 107.16 176.99 110.74 C 169.66 110.73 162.33 110.73 155.00 110.74 C 155.00 112.40 155.01 114.07 155.01 115.74 C 163.00 115.73 171.00 115.73 178.99 115.74 C 179.00 119.82 179.00 123.91 179.00 128.00 C 166.09 128.00 153.17 128.01 140.26 127.99 C 140.27 113.00 140.27 98.00 140.26 83.01 Z" />
<path fill="#000000" opacity="1.00" d=" M 200.54 83.00 C 205.36 83.00 210.18 83.00 215.00 83.00 C 215.01 92.01 214.98 101.01 215.01 110.02 C 215.03 114.36 214.49 119.04 211.70 122.56 C 204.12 132.16 187.15 130.85 180.62 120.66 C 183.89 117.91 187.18 115.18 190.38 112.34 C 191.96 113.99 193.46 116.22 195.99 116.33 C 198.76 116.53 200.73 113.64 200.52 111.07 C 200.56 101.72 200.51 92.36 200.54 83.00 Z" />
<path fill="#000000" opacity="1.00" d=" M 234.16 83.03 C 239.12 82.98 244.08 83.00 249.05 83.01 C 255.38 97.98 261.63 112.98 267.98 127.95 C 262.57 128.06 257.15 127.96 251.74 128.01 C 250.96 125.98 250.07 123.98 249.26 121.95 C 243.97 122.14 238.68 121.78 233.40 122.17 C 232.81 124.17 232.03 126.11 231.21 128.03 C 225.91 127.96 220.61 128.04 215.32 127.98 C 221.53 112.97 227.93 98.03 234.16 83.03 M 237.39 111.25 C 240.13 111.27 242.86 111.27 245.60 111.25 C 244.21 107.67 242.85 104.08 241.51 100.48 C 240.15 104.07 238.78 107.66 237.39 111.25 Z" />
<path fill="#000000" opacity="1.00" d=" M 99.23 148.14 C 102.08 139.80 110.23 133.96 118.90 133.16 C 128.03 131.92 137.61 136.41 141.98 144.62 C 137.90 147.11 133.76 149.49 129.66 151.94 C 127.77 148.44 123.92 145.54 119.77 146.64 C 113.77 147.89 111.77 155.42 113.63 160.60 C 114.79 164.88 119.73 167.70 123.97 166.17 C 126.72 165.47 128.52 163.17 129.99 160.91 C 134.11 163.23 138.26 165.51 142.32 167.95 C 139.34 172.97 134.81 177.26 129.08 178.85 C 120.46 181.55 110.37 179.49 104.03 172.91 C 97.94 166.41 96.13 156.45 99.23 148.14 Z" />
<path fill="#000000" opacity="1.00" d=" M 145.00 134.00 C 150.00 134.00 155.00 134.00 160.00 134.00 C 160.01 139.33 159.99 144.67 160.00 150.00 C 164.33 150.00 168.67 150.00 173.00 150.00 C 173.00 144.67 172.99 139.33 173.00 134.00 C 178.00 134.00 183.00 134.00 188.00 134.00 C 188.00 149.00 188.00 164.00 188.00 179.00 C 183.00 179.00 178.00 179.00 173.00 179.00 C 172.99 173.66 173.01 168.33 173.00 163.00 C 168.66 163.00 164.33 163.00 160.00 163.00 C 159.99 168.33 160.01 173.66 160.00 179.00 C 155.00 179.00 150.00 179.00 145.00 179.00 C 145.00 164.00 145.00 149.00 145.00 134.00 Z" />
<path fill="#000000" opacity="1.00" d=" M 194.00 134.00 C 199.00 134.00 204.00 134.00 209.00 134.00 C 209.00 149.00 209.00 164.00 209.00 179.00 C 204.00 179.00 199.00 179.00 194.00 179.00 C 194.00 164.00 194.00 149.00 194.00 134.00 Z" />
<path fill="#000000" opacity="1.00" d=" M 213.54 134.01 C 218.68 133.99 223.82 134.00 228.96 134.00 C 232.15 139.31 235.44 144.56 238.64 149.88 C 241.85 144.57 245.05 139.26 248.34 134.00 C 253.56 134.00 258.78 134.00 264.00 134.00 C 264.00 149.00 264.00 164.00 264.00 179.00 C 259.00 179.00 254.00 179.00 249.00 179.00 C 248.98 171.58 249.03 164.17 248.98 156.75 C 245.46 162.09 242.01 167.47 238.57 172.86 C 234.90 167.59 231.60 162.07 228.02 156.75 C 227.97 164.16 228.02 171.58 228.00 179.00 C 223.18 179.00 218.36 179.00 213.54 178.99 C 213.53 164.00 213.53 149.00 213.54 134.01 Z" />
<path fill="#000000" opacity="1.00" d=" M 269.26 134.01 C 281.99 133.99 294.73 134.00 307.46 134.01 C 307.47 138.09 307.47 142.18 307.46 146.26 C 299.64 146.27 291.83 146.27 284.01 146.26 C 284.01 147.84 284.00 149.42 283.99 151.00 C 291.33 151.01 298.66 150.99 306.00 151.00 C 306.00 154.58 306.00 158.16 305.99 161.74 C 298.66 161.73 291.33 161.73 284.00 161.74 C 284.00 163.40 284.01 165.07 284.01 166.74 C 292.00 166.73 300.00 166.73 307.99 166.74 C 308.00 170.82 308.00 174.91 308.00 179.00 C 295.09 179.00 282.17 179.01 269.26 178.99 C 269.27 164.00 269.27 149.01 269.26 134.01 Z" />
<path fill="#000000" opacity="1.00" d=" M 313.00 134.00 C 320.66 134.05 328.32 133.90 335.98 134.07 C 342.13 134.24 349.03 135.91 352.67 141.33 C 357.64 148.80 354.50 160.07 346.14 163.62 C 349.02 167.77 351.85 171.96 354.59 176.21 C 360.21 162.05 366.37 148.11 372.16 134.02 C 377.12 133.98 382.08 134.00 387.05 134.01 C 393.38 148.98 399.63 163.98 405.98 178.95 C 400.61 179.09 395.23 178.90 389.86 179.07 C 388.92 177.04 388.08 174.98 387.21 172.93 C 382.04 173.05 376.87 173.04 371.71 172.93 C 370.86 174.97 370.02 177.02 369.17 179.06 C 359.25 178.88 349.33 179.12 339.41 178.94 C 336.67 174.62 333.88 170.34 331.19 166.00 C 330.39 166.00 328.80 166.00 328.00 166.00 C 327.99 170.33 328.00 174.66 328.00 179.00 C 323.00 179.00 318.00 179.00 313.00 179.00 C 313.00 164.00 313.00 149.00 313.00 134.00 M 328.00 146.48 C 327.99 149.40 327.99 152.33 328.01 155.25 C 331.24 155.08 334.67 155.86 337.74 154.57 C 340.77 153.34 340.78 148.47 337.80 147.17 C 334.70 145.95 331.26 146.61 328.00 146.48 M 375.39 162.25 C 378.12 162.27 380.86 162.27 383.60 162.25 C 382.21 158.67 380.84 155.09 379.52 151.48 C 378.14 155.07 376.78 158.66 375.39 162.25 Z" />
</g>
</svg>
